<svg xmlns="http://www.w3.org/2000/svg" width="267" height="39" viewBox="0 0 267 39"><path fill="#fff" d="M106.401.53l-4.787 12.142-.197.501c-.111.269-.237.464-.378.585a.778.778 0 0 1-.526.182.862.862 0 0 1-.59-.216.67.67 0 0 1-.246-.521c0-.184.082-.436.246-.757l.206-.384 5.24-9.958h-4.286c-.354 0-.626.018-.816.054-.19.036-.357.1-.501.192a1.73 1.73 0 0 0-.492.496c-.131.2-.301.542-.511 1.027l-.05.118h-.196L99.402.07h.206c.046.216.118.352.217.408.098.056.31.083.639.083zM93.958 13.764h-7.639v-.197a33.704 33.704 0 0 0 2.42-2.388c.808-.879 1.5-1.711 2.076-2.497.812-1.102 1.396-2.052 1.752-2.851.357-.8.535-1.547.535-2.242 0-.937-.3-1.73-.9-2.379-.504-.537-1.104-.806-1.803-.806-.607 0-1.14.19-1.596.57-.314.25-.555.57-.725.964-.17.393-.255.822-.255 1.287 0 .76.255 1.39.764 1.888.222.223.469.395.74.516a1.965 1.965 0 0 0 1.043.172l.058.167c-.478.25-.894.374-1.248.374-.557 0-1.055-.207-1.494-.62a2.47 2.47 0 0 1-.62-.924 3.197 3.197 0 0 1-.216-1.18c0-1.002.36-1.825 1.081-2.467.747-.655 1.688-.983 2.822-.983a4.65 4.65 0 0 1 1.715.31 3.48 3.48 0 0 1 1.322.89c.322.34.567.74.738 1.199.17.459.255.937.255 1.435 0 .983-.344 1.99-1.032 3.018a10.58 10.58 0 0 1-1.21 1.46c-.471.482-1.126 1.073-1.965 1.774-1.075.885-1.845 1.54-2.31 1.967h3.548c.597 0 1.02-.036 1.269-.109.334-.091.612-.258.835-.5.25-.27.45-.653.6-1.151l.216.04zm-19.874-2.212c.328 0 .608.116.84.35.233.232.35.515.35.85 0 .327-.117.607-.35.84a1.146 1.146 0 0 1-.84.349c-.328 0-.608-.116-.84-.349a1.146 1.146 0 0 1-.35-.84c0-.335.117-.618.35-.85.232-.234.512-.35.84-.35zM56.607 7.29c0 1.902.518 3.505 1.553 4.81.466.584.959 1.009 1.48 1.274.52.266 1.122.399 1.804.399.688 0 1.292-.131 1.813-.394.521-.262 1.018-.688 1.49-1.279 1.035-1.31 1.553-2.928 1.553-4.85a10.28 10.28 0 0 0-.428-2.995c-.285-.942-.686-1.74-1.204-2.396-.42-.538-.886-.93-1.4-1.175-.515-.246-1.123-.37-1.824-.37-.695 0-1.296.122-1.804.365-.508.242-.978.636-1.411 1.18-.518.65-.918 1.446-1.2 2.39a10.583 10.583 0 0 0-.422 3.04zm-2.38-.148a6.74 6.74 0 0 1 .709-3.064c.472-.941 1.16-1.763 2.064-2.465A7.978 7.978 0 0 1 59.183.418a6.823 6.823 0 0 1 5.289.246 7.515 7.515 0 0 1 2.477 1.874c1.153 1.312 1.73 2.804 1.73 4.476 0 .84-.15 1.65-.452 2.43a6.9 6.9 0 0 1-1.318 2.135 7.416 7.416 0 0 1-2.511 1.86 7.256 7.256 0 0 1-3.033.658 7.221 7.221 0 0 1-2.989-.64 7.131 7.131 0 0 1-2.457-1.81 6.56 6.56 0 0 1-1.254-2.08 6.846 6.846 0 0 1-.437-2.425zM39.013 2.123v8.553c0 .675.038 1.173.113 1.494a1.663 1.663 0 0 0 1.042 1.21c.233.085.536.137.91.157v.226h-4.532v-.226c.373-.02.676-.072.909-.157a1.65 1.65 0 0 0 1.042-1.214c.075-.325.113-.821.113-1.49V3.421c0-.662-.038-1.155-.113-1.48a1.665 1.665 0 0 0-.418-.8 1.569 1.569 0 0 0-.614-.414c-.233-.085-.54-.137-.92-.157V.344h3.785l7.983 10.185V3.43c0-.675-.038-1.173-.113-1.494a1.664 1.664 0 0 0-1.042-1.21c-.233-.085-.536-.137-.91-.157V.344h4.532V.57c-.655 0-1.166.19-1.533.57-.203.21-.343.477-.418.802-.075.324-.113.817-.113 1.48v10.341h-.442zM16.16.65v9.772c0 .642.036 1.13.108 1.464.072.335.206.62.403.856.42.51 1.1.766 2.045.766.806 0 1.496-.132 2.069-.398.573-.265 1.086-.696 1.538-1.292a6.267 6.267 0 0 0 1.018-1.981 7.91 7.91 0 0 0 .349-2.374c0-.931-.141-1.816-.423-2.655a6.767 6.767 0 0 0-1.209-2.202c-.727-.871-1.596-1.448-2.605-1.73-.55-.15-1.252-.226-2.104-.226zm-4.218 12.888c.38-.02.685-.072.915-.157a1.66 1.66 0 0 0 1.037-1.214c.075-.325.113-.821.113-1.49V3.431c0-.721-.045-1.249-.133-1.583a1.586 1.586 0 0 0-.516-.826c-.321-.268-.793-.419-1.416-.452V.344h5.407c1.2 0 1.963.013 2.29.04 1.384.104 2.557.497 3.52 1.18a6.594 6.594 0 0 1 2.143 2.55c.511 1.052.767 2.197.767 3.436 0 .904-.146 1.758-.438 2.56-.291.804-.696 1.47-1.214 2.001-.727.748-1.635 1.223-2.723 1.426-.812.15-1.641.226-2.487.226h-7.265zM0 13.724l.03-4.06.226.01c.275 1.032.603 1.846.983 2.441.714 1.099 1.612 1.648 2.693 1.648.754 0 1.377-.252 1.868-.757.492-.505.737-1.144.737-1.917a3.43 3.43 0 0 0-.162-1.022 2.997 2.997 0 0 0-.437-.895 3.334 3.334 0 0 0-.801-.737c-.345-.236-.87-.534-1.578-.895-.623-.314-1.1-.58-1.43-.796a4.156 4.156 0 0 1-.802-.659C.764 5.47.482 4.72.482 3.834c0-.544.11-1.068.329-1.573.22-.505.526-.937.92-1.298A3.513 3.513 0 0 1 4.197 0c.308 0 .593.031.855.093.262.063.613.186 1.052.369.328.131.55.215.668.25.118.037.223.055.315.055.23 0 .383-.167.462-.502h.226l.069 3.903h-.226c-.177-.622-.329-1.1-.457-1.43a5.346 5.346 0 0 0-.456-.92c-.32-.51-.674-.889-1.06-1.135A2.431 2.431 0 0 0 4.312.315c-.733 0-1.312.249-1.737.747a2.29 2.29 0 0 0-.417.719 2.379 2.379 0 0 0-.153.826c0 1.096.704 1.978 2.111 2.648l1.384.669c1.067.505 1.836 1.063 2.307 1.673.536.682.805 1.476.805 2.381 0 .602-.122 1.177-.364 1.726a3.84 3.84 0 0 1-1.534 1.77c-.681.416-1.484.623-2.408.623a6.127 6.127 0 0 1-2.438-.501 14.733 14.733 0 0 0-.728-.305.837.837 0 0 0-.265-.04c-.315 0-.53.158-.649.473zM95.413 28.871c0 1.972.537 3.634 1.61 4.986.482.605.994 1.046 1.534 1.321.54.275 1.163.413 1.87.413.713 0 1.34-.136 1.88-.408.54-.272 1.054-.714 1.543-1.326 1.073-1.36 1.61-3.035 1.61-5.027 0-1.094-.148-2.13-.443-3.105-.296-.975-.712-1.803-1.248-2.483-.435-.557-.92-.963-1.452-1.218-.534-.255-1.164-.383-1.89-.383-.72 0-1.344.126-1.87.378-.527.251-1.014.659-1.463 1.223-.536.673-.95 1.5-1.243 2.478a10.97 10.97 0 0 0-.438 3.151zm-2.466-.153c0-1.142.245-2.2.734-3.176s1.202-1.827 2.14-2.554a8.27 8.27 0 0 1 2.262-1.24 7.22 7.22 0 0 1 2.445-.433c1.046 0 2.059.23 3.037.689a7.79 7.79 0 0 1 2.568 1.942c1.195 1.36 1.793 2.906 1.793 4.64 0 .87-.156 1.71-.469 2.518a7.152 7.152 0 0 1-1.365 2.213 7.687 7.687 0 0 1-2.604 1.927 7.513 7.513 0 0 1-3.143.683 7.47 7.47 0 0 1-3.098-.663 7.391 7.391 0 0 1-2.547-1.876 6.799 6.799 0 0 1-1.3-2.156 7.096 7.096 0 0 1-.453-2.514zm-16.546.153c0 1.972.537 3.634 1.61 4.986.483.605.994 1.046 1.534 1.321.54.275 1.163.413 1.87.413.713 0 1.34-.136 1.88-.408.54-.272 1.054-.714 1.543-1.326 1.074-1.36 1.61-3.035 1.61-5.027 0-1.094-.147-2.13-.443-3.105-.295-.975-.711-1.803-1.248-2.483-.435-.557-.919-.963-1.452-1.218-.533-.255-1.163-.383-1.89-.383-.72 0-1.344.126-1.87.378-.527.251-1.014.659-1.462 1.223-.537.673-.951 1.5-1.243 2.478a10.97 10.97 0 0 0-.439 3.151zm-2.465-.153c0-1.142.244-2.2.733-3.176.49-.976 1.203-1.827 2.14-2.554a8.27 8.27 0 0 1 2.262-1.24 7.22 7.22 0 0 1 2.446-.433c1.046 0 2.058.23 3.036.689a7.789 7.789 0 0 1 2.568 1.942c1.195 1.36 1.793 2.906 1.793 4.64 0 .87-.156 1.71-.469 2.518a7.152 7.152 0 0 1-1.365 2.213 7.687 7.687 0 0 1-2.603 1.927 7.513 7.513 0 0 1-3.144.683c-1.08 0-2.112-.22-3.097-.663a7.392 7.392 0 0 1-2.548-1.876 6.798 6.798 0 0 1-1.299-2.156 7.096 7.096 0 0 1-.453-2.514zM61.7 28.356v4.198c0 .51.036.92.107 1.233.071.313.188.578.351.795.347.455.941.683 1.784.683 1.093 0 1.958-.299 2.593-.897.635-.598.953-1.413.953-2.445a4.5 4.5 0 0 0-.296-1.646c-.197-.506-.462-.895-.795-1.167-.611-.502-1.569-.754-2.873-.754zm0-6.368v6.052h.825c.387 0 .788-.027 1.203-.081.36-.054.65-.119.87-.194a2.32 2.32 0 0 0 .607-.305c.347-.259.613-.59.8-.994.187-.404.28-.85.28-1.34 0-.516-.097-1.007-.29-1.472-.194-.466-.45-.827-.77-1.085a2.325 2.325 0 0 0-.952-.459c-.357-.081-.899-.122-1.625-.122zM57.329 35.58v-.235c.394-.02.711-.076.952-.168a1.73 1.73 0 0 0 .637-.423c.218-.217.364-.492.438-.825.075-.333.112-.85.112-1.549v-7.51c0-.7-.037-1.216-.112-1.548a1.648 1.648 0 0 0-.438-.826 1.619 1.619 0 0 0-.642-.428c-.244-.088-.56-.142-.947-.163v-.234h6.694c.68 0 1.124.007 1.335.02.774.061 1.416.245 1.926.55.441.272.783.629 1.024 1.07.241.442.362.938.362 1.488 0 .89-.276 1.62-.826 2.19a2.72 2.72 0 0 1-.672.526 7.831 7.831 0 0 1-1.09.463c.652.109 1.158.228 1.518.357.36.129.686.309.978.54.435.353.773.793 1.014 1.32.24.526.361 1.095.361 1.706 0 .618-.124 1.184-.371 1.697a3.182 3.182 0 0 1-1.035 1.238c-.4.278-.878.472-1.431.58-.554.11-1.333.164-2.339.164zm-3.086-13.91v.235c-.387.02-.701.075-.942.163a1.71 1.71 0 0 0-.647.428c-.265.272-.428.649-.49 1.131-.04.36-.06.775-.06 1.243v7.51c0 .564.027 1.009.08 1.335.055.326.144.588.266.785.176.271.404.473.683.606.278.132.648.212 1.11.24v.234h-6.511v-.235c.394-.02.712-.076.953-.168a1.73 1.73 0 0 0 .637-.423 1.65 1.65 0 0 0 .438-.825c.074-.333.112-.85.112-1.549v-7.51c0-.7-.038-1.216-.112-1.548a1.648 1.648 0 0 0-.438-.826 1.619 1.619 0 0 0-.642-.428c-.245-.088-.56-.142-.948-.163v-.234zm-17.738 6.88h.387c.843 0 1.446-.048 1.809-.143a2.38 2.38 0 0 0 1.024-.59c.713-.68 1.07-1.522 1.07-2.528 0-.536-.104-1.04-.31-1.513a3.125 3.125 0 0 0-.862-1.167 2.49 2.49 0 0 0-1.019-.484c-.394-.091-.954-.137-1.681-.137h-.418zm0 .224v3.607c0 .693.04 1.208.117 1.544.078.336.223.613.433.83.184.19.396.332.637.423.241.092.559.148.953.168v.235h-6.511v-.235c.394-.02.711-.076.953-.168a1.73 1.73 0 0 0 .636-.423c.218-.217.364-.492.439-.825.074-.333.112-.85.112-1.549v-7.51c0-.7-.038-1.216-.112-1.548a1.648 1.648 0 0 0-.439-.826 1.619 1.619 0 0 0-.642-.428c-.244-.088-.56-.142-.947-.163v-.234h4.911c.822 0 1.362.003 1.62.01 1.053.048 1.879.19 2.476.428.673.272 1.194.678 1.565 1.218.37.54.555 1.166.555 1.88 0 1.06-.401 1.909-1.203 2.547-.244.19-.514.347-.81.469a7.285 7.285 0 0 1-1.187.346c.408.17.71.347.907.53.156.143.3.321.428.535.13.214.323.593.58 1.136a82.133 82.133 0 0 0 1.371 2.726c.31.574.57.99.78 1.248.17.21.334.357.494.438.16.082.379.136.657.163v.235h-3.383c-.17-.374-.278-.612-.326-.714l-.713-1.62c-.428-.971-.86-1.83-1.294-2.578-.435-.74-.832-1.246-1.192-1.518a1.776 1.776 0 0 0-.591-.29 2.97 2.97 0 0 0-.775-.087zm-13.142.795l-2.14-5.278-2.018 5.278zm6.399 6.012h-6.695v-.235c.605-.054 1.026-.156 1.264-.305.42-.265.631-.632.631-1.1 0-.28-.095-.653-.285-1.122l-.173-.428-.978-2.404h-4.484l-.53 1.406-.254.632c-.306.747-.459 1.334-.459 1.762a1.512 1.512 0 0 0 .622 1.233c.265.184.604.292 1.019.326v.235h-4.565v-.235c.36-.02.676-.108.947-.265.272-.156.537-.407.795-.754.218-.278.43-.636.637-1.075.207-.438.48-1.095.82-1.971l3.73-9.61h.58l4.433 10.71c.333.809.598 1.386.795 1.732.197.347.41.608.642.785.163.122.35.216.56.28.21.065.527.12.948.168zM12.054 21.6l.123 4.554h-.235a29.045 29.045 0 0 0-.173-.448 19.372 19.372 0 0 0-.58-1.457 5.136 5.136 0 0 0-1.152-1.57 3.77 3.77 0 0 0-1.182-.784 3.676 3.676 0 0 0-1.376-.244c-.767 0-1.433.166-1.997.499-.496.292-.958.711-1.386 1.258a7.298 7.298 0 0 0-1.05 1.87c-.387.985-.58 2.106-.58 3.363 0 1.066.132 2.027.397 2.883.265.856.652 1.573 1.162 2.15.937 1.074 2.18 1.61 3.73 1.61.774 0 1.47-.134 2.088-.402.618-.269 1.097-.647 1.437-1.136.394-.564.68-1.325.856-2.283l.234.04c-.129 1.074-.421 1.927-.876 2.559-.435.604-1.034 1.066-1.799 1.385-.764.32-1.649.48-2.654.48-.937 0-1.834-.14-2.69-.419-1.365-.448-2.432-1.258-3.2-2.43C.384 31.907 0 30.51 0 28.886c0-1.243.224-2.39.673-3.439.448-1.05 1.073-1.893 1.874-2.532.619-.489 1.357-.878 2.217-1.167a8.067 8.067 0 0 1 2.583-.433c.822 0 1.691.157 2.608.469l.836.275c.163.061.305.092.428.092a.5.5 0 0 0 .417-.214c.048-.068.106-.18.174-.336zM254.157 23.516v8.865c0 .7.039 1.216.117 1.55a1.724 1.724 0 0 0 1.08 1.252c.24.089.555.143.942.163v.235H251.6v-.235c.387-.02.701-.074.942-.163a1.71 1.71 0 0 0 1.08-1.258c.079-.336.118-.85.118-1.544v-7.52c0-.686-.04-1.197-.117-1.533a1.726 1.726 0 0 0-.434-.83 1.626 1.626 0 0 0-.636-.429c-.242-.088-.56-.142-.953-.163v-.234h3.923l8.274 10.556v-7.357c0-.7-.04-1.215-.117-1.548a1.724 1.724 0 0 0-1.08-1.254c-.242-.088-.556-.142-.943-.163v-.234h4.697v.234c-.679 0-1.209.197-1.59.591-.21.218-.354.494-.432.83-.078.337-.117.848-.117 1.534v10.72h-.459zm-5.643-1.844v.234c-.388.02-.702.075-.943.163a1.71 1.71 0 0 0-.647.428c-.265.272-.428.649-.49 1.131-.04.36-.06.775-.06 1.243v7.51c0 .564.027 1.009.081 1.335.055.326.143.588.265.785.177.271.404.473.683.606.278.132.649.212 1.11.24v.234h-6.51v-.235c.393-.02.71-.076.952-.168a1.73 1.73 0 0 0 .637-.423 1.65 1.65 0 0 0 .438-.825c.075-.333.112-.85.112-1.549v-7.51c0-.7-.037-1.216-.112-1.548a1.648 1.648 0 0 0-.438-.826 1.619 1.619 0 0 0-.642-.428c-.245-.088-.56-.142-.948-.163v-.234zm-17.423.316c-.428 0-.886.013-1.375.04-1.046.055-1.826.187-2.339.398-.513.21-.935.574-1.268 1.09-.306.476-.54 1.121-.703 1.936l-.235-.02.184-3.76h13.786l.184 3.76-.235.02c-.183-.944-.47-1.659-.86-2.145-.391-.485-.96-.833-1.708-1.044-.631-.183-1.701-.275-3.21-.275V32.38c0 .693.04 1.208.118 1.544a1.711 1.711 0 0 0 1.08 1.258c.241.089.555.143.943.163v.235h-6.512v-.235c.394-.02.712-.074.953-.163a1.71 1.71 0 0 0 1.08-1.253c.078-.333.117-.85.117-1.549zm-21.569 6.883c0 1.972.537 3.634 1.61 4.986.482.605.994 1.046 1.534 1.321.54.275 1.163.413 1.87.413.713 0 1.34-.136 1.88-.408.54-.272 1.054-.714 1.543-1.326 1.073-1.36 1.61-3.035 1.61-5.027 0-1.094-.148-2.13-.443-3.105-.296-.975-.712-1.803-1.248-2.483-.435-.557-.92-.963-1.452-1.218-.534-.255-1.164-.383-1.89-.383-.72 0-1.344.126-1.87.378-.527.251-1.014.659-1.463 1.223-.536.673-.95 1.5-1.243 2.478a10.97 10.97 0 0 0-.438 3.151zm-2.466-.153c0-1.142.245-2.2.734-3.176s1.202-1.827 2.14-2.554a8.27 8.27 0 0 1 2.262-1.24 7.22 7.22 0 0 1 2.445-.433c1.046 0 2.059.23 3.037.689a7.789 7.789 0 0 1 2.568 1.942c1.195 1.36 1.793 2.906 1.793 4.64 0 .87-.156 1.71-.469 2.518a7.152 7.152 0 0 1-1.365 2.213 7.687 7.687 0 0 1-2.604 1.927 7.513 7.513 0 0 1-3.143.683 7.47 7.47 0 0 1-3.098-.663 7.392 7.392 0 0 1-2.547-1.876 6.799 6.799 0 0 1-1.3-2.156 7.096 7.096 0 0 1-.453-2.514zm-4.002-7.117l.122 4.554h-.234a29.234 29.234 0 0 0-.174-.448 19.377 19.377 0 0 0-.58-1.457 5.136 5.136 0 0 0-1.152-1.57 3.77 3.77 0 0 0-1.182-.784 3.677 3.677 0 0 0-1.375-.244c-.768 0-1.434.166-1.998.499-.495.292-.957.711-1.385 1.258a7.298 7.298 0 0 0-1.05 1.87c-.387.985-.58 2.106-.58 3.363 0 1.066.132 2.027.397 2.883.265.856.652 1.573 1.161 2.15.938 1.074 2.18 1.61 3.73 1.61.774 0 1.47-.134 2.089-.402.618-.269 1.097-.647 1.436-1.136.394-.564.68-1.325.856-2.283l.235.04c-.13 1.074-.422 1.927-.877 2.559-.434.604-1.034 1.066-1.798 1.385-.764.32-1.65.48-2.655.48-.937 0-1.834-.14-2.69-.419-1.365-.448-2.431-1.258-3.2-2.43-.767-1.172-1.15-2.57-1.15-4.193 0-1.243.224-2.39.672-3.439.448-1.05 1.073-1.893 1.875-2.532.618-.489 1.357-.878 2.216-1.167a8.067 8.067 0 0 1 2.583-.433c.822 0 1.692.157 2.609.469l.835.275c.163.061.306.092.428.092.17 0 .31-.071.418-.214.048-.068.105-.18.173-.336zm-27.347 13.98v-.245c.686 0 1.216-.193 1.59-.58.21-.218.354-.495.433-.831.078-.336.117-.85.117-1.544v-7.51c0-.72-.043-1.251-.128-1.594a1.677 1.677 0 0 0-.473-.84 1.796 1.796 0 0 0-.637-.388c-.235-.082-.535-.13-.902-.143v-.234h6.511v.234c-.374.02-.68.072-.917.153-.238.082-.448.21-.632.387a1.704 1.704 0 0 0-.468.846c-.082.34-.123.866-.123 1.58v5.879c0 .903.024 1.576.072 2.017.047.442.139.802.275 1.08.237.49.59.848 1.06 1.076.468.227 1.09.34 1.864.34.809 0 1.49-.106 2.043-.32a3.134 3.134 0 0 0 1.36-.994c.238-.305.434-.652.586-1.039.153-.387.294-.897.423-1.528l.245.02-.133 4.178zm-3.085-13.91v.235c-.388.02-.702.075-.943.163a1.71 1.71 0 0 0-.647.428c-.265.272-.428.649-.49 1.131-.04.36-.06.775-.06 1.243v7.51c0 .564.027 1.009.081 1.335.055.326.143.588.265.785.177.271.404.473.683.606.278.132.649.212 1.11.24v.234h-6.51v-.235c.393-.02.711-.076.952-.168a1.73 1.73 0 0 0 .637-.423 1.65 1.65 0 0 0 .438-.825c.075-.333.112-.85.112-1.549v-7.51c0-.7-.037-1.216-.112-1.548a1.648 1.648 0 0 0-.438-.826 1.619 1.619 0 0 0-.642-.428c-.244-.088-.56-.142-.948-.163v-.234zm-21.203 6.471h7.235v-3.27c0-.7-.04-1.216-.117-1.55a1.724 1.724 0 0 0-1.08-1.253c-.242-.088-.56-.142-.953-.163v-.234h6.51v.234c-.386.02-.7.075-.942.163a1.711 1.711 0 0 0-1.08 1.259c-.078.336-.117.85-.117 1.543v7.51c0 .693.04 1.206.117 1.539.078.333.223.611.433.835.19.19.406.332.647.423.241.092.556.148.943.168v.235h-6.511v-.235c.394-.02.711-.076.952-.168.242-.091.457-.232.647-.423.211-.217.355-.492.434-.825.078-.333.117-.85.117-1.549v-3.76h-7.235v3.76c0 .693.04 1.208.117 1.544.078.336.223.613.433.83.184.19.396.332.637.423.241.092.559.148.953.168v.235h-6.511v-.235c.394-.02.711-.076.952-.168a1.73 1.73 0 0 0 .637-.423c.218-.217.364-.492.438-.825.075-.333.113-.85.113-1.549v-7.51c0-.7-.038-1.216-.112-1.548a1.648 1.648 0 0 0-.439-.826 1.619 1.619 0 0 0-.642-.428c-.244-.088-.56-.142-.947-.163v-.234h6.51v.234c-.386.02-.7.075-.942.163a1.711 1.711 0 0 0-1.08 1.259c-.078.336-.117.85-.117 1.543zm-7.895-6.541l.122 4.554h-.234a29.045 29.045 0 0 0-.173-.448 19.372 19.372 0 0 0-.58-1.457 5.136 5.136 0 0 0-1.152-1.57 3.77 3.77 0 0 0-1.182-.784 3.676 3.676 0 0 0-1.376-.244c-.768 0-1.433.166-1.997.499-.496.292-.958.711-1.386 1.258a7.298 7.298 0 0 0-1.05 1.87c-.387.985-.58 2.106-.58 3.363 0 1.066.132 2.027.397 2.883.265.856.652 1.573 1.162 2.15.937 1.074 2.18 1.61 3.73 1.61.774 0 1.47-.134 2.088-.402.618-.269 1.097-.647 1.437-1.136.394-.564.68-1.325.856-2.283l.234.04c-.129 1.074-.421 1.927-.876 2.559-.435.604-1.034 1.066-1.799 1.385-.764.32-1.649.48-2.654.48-.938 0-1.834-.14-2.69-.419-1.366-.448-2.432-1.258-3.2-2.43-.767-1.172-1.151-2.57-1.151-4.193 0-1.243.224-2.39.672-3.439.449-1.05 1.074-1.893 1.875-2.532.618-.489 1.357-.878 2.217-1.167a8.067 8.067 0 0 1 2.583-.433c.822 0 1.691.157 2.608.469l.836.275c.163.061.305.092.428.092a.5.5 0 0 0 .417-.214c.048-.068.106-.18.174-.336zM119.152 39.054V18.433h1.33v20.62z"/></svg>