<svg xmlns="http://www.w3.org/2000/svg" viewBox="0 0 267 39"><path d="M106.4.5l-4.8 12.1-.2.5c-.1.3-.2.5-.4.6-.1.1-.3.2-.5.2s-.4-.1-.6-.2c-.2-.1-.2-.3-.2-.5s.1-.4.2-.8l.2-.4 5.2-10H101c-.4 0-.6 0-.8.1s-.4.1-.5.2c-.2.1-.4.3-.5.5-.1.2-.3.5-.5 1V4h-.2l.9-3.9h.2c0 .2.1.4.2.4.1.1.3.1.6.1l6-.1zM94 13.8h-7.6v-.2c.8-.8 1.7-1.6 2.4-2.4.8-.9 1.5-1.7 2.1-2.5.8-1.1 1.4-2.1 1.8-2.9.4-.8.5-1.5.5-2.2 0-.9-.3-1.7-.9-2.4-.5-.5-1.1-.8-1.8-.8-.6 0-1.1.2-1.6.6-.3.2-.6.6-.7 1-.2.4-.3.8-.3 1.3 0 .8.3 1.4.8 1.9.2.2.5.4.7.5.3.2.7.2 1 .2V6c-.5.3-.9.4-1.2.4-.6 0-1.1-.2-1.5-.6-.3-.3-.5-.6-.6-.9-.1-.4-.2-.8-.2-1.2 0-1 .4-1.8 1.1-2.5.7-.7 1.7-1 2.8-1 .6 0 1.2.1 1.7.3.5.2 1 .5 1.3.9.3.3.6.7.7 1.2.2.4.3.9.3 1.4 0 1-.3 2-1 3-.3.5-.7 1-1.2 1.5s-1.1 1.1-2 1.8c-1.1.9-1.8 1.5-2.3 2h3.5c.6 0 1 0 1.3-.1.3-.1.6-.3.8-.5.3-.3.4-.7.6-1.2h.2l-.7 3.3zm-19.9-2.2c.3 0 .6.1.8.4.2.2.3.5.3.9 0 .3-.1.6-.3.8-.2.2-.5.4-.8.3-.3 0-.6-.1-.8-.3-.2-.2-.4-.5-.3-.8 0-.3.1-.6.3-.9.2-.3.5-.4.8-.4zM56.6 7.3c0 1.9.5 3.5 1.6 4.8.5.6 1 1 1.5 1.3.5.3 1.1.4 1.8.4s1.3-.1 1.8-.4c.5-.3 1-.7 1.5-1.3 1-1.3 1.6-2.9 1.6-4.9 0-1-.1-2-.4-3-.3-.9-.7-1.7-1.2-2.4-.4-.5-.9-.9-1.4-1.2-.5-.2-1.1-.4-1.8-.4s-1.3.1-1.8.4c-.5.2-1 .6-1.4 1.2-.5.7-.9 1.4-1.2 2.4-.5 1-.6 2.1-.6 3.1zm-2.4-.2c0-1.1.2-2.1.7-3.1.5-.9 1.2-1.8 2.1-2.5.7-.5 1.4-.9 2.2-1.2 1.7-.6 3.6-.5 5.3.2.9.4 1.8 1.1 2.5 1.9 1.2 1.3 1.7 2.8 1.7 4.5 0 .8-.2 1.6-.5 2.4-.3.8-.8 1.5-1.3 2.1-.7.8-1.6 1.4-2.5 1.9-1 .4-2 .7-3 .7s-2-.2-3-.6c-.9-.4-1.8-1-2.5-1.8-.5-.6-1-1.3-1.3-2.1-.2-.7-.4-1.5-.4-2.4zM39 2.1v8.6c0 .7 0 1.2.1 1.5.1.6.5 1 1 1.2.2.1.5.1.9.2v.2h-4.5v-.2c.4 0 .7-.1.9-.2.5-.2.9-.7 1-1.2.1-.3.1-.8.1-1.5V3.4c0-.7 0-1.2-.1-1.5-.1-.3-.2-.6-.4-.8-.2-.2-.4-.3-.6-.4-.2-.1-.5-.1-.9-.2V.3h3.8l8 10.2V3.4c0-.7 0-1.2-.1-1.5-.1-.6-.5-1-1-1.2-.2-.1-.5-.1-.9-.2V.3h4.5v.2c-.7 0-1.2.2-1.5.6-.2.2-.3.5-.4.8-.1.3-.1.8-.1 1.5v10.3h-.4L39 2.1zM16.2.6v9.8c0 .6 0 1.1.1 1.5.1.3.2.6.4.9.4.5 1.1.8 2 .8.8 0 1.5-.1 2.1-.4.6-.3 1.1-.7 1.5-1.3.5-.6.8-1.3 1-2 .2-.8.4-1.6.3-2.4 0-.9-.1-1.8-.4-2.7-.2-.8-.6-1.5-1.1-2.2-.7-.9-1.6-1.4-2.6-1.7-.5-.1-1.3-.2-2.1-.2L16.2.6zm-4.3 12.9c.4 0 .7-.1.9-.2.5-.2.9-.7 1-1.2.1-.3.1-.8.1-1.5V3.4c0-.7 0-1.2-.1-1.6-.1-.3-.3-.6-.5-.8-.3-.3-.8-.4-1.4-.5V.3h7.7c1.4.1 2.6.5 3.5 1.2.9.7 1.7 1.5 2.1 2.5.5 1.1.8 2.2.8 3.4 0 .9-.1 1.8-.4 2.6-.3.8-.7 1.5-1.2 2-.7.7-1.6 1.2-2.7 1.4-.8.1-1.6.2-2.5.2h-7.3v-.1zM0 13.7V9.6h.2c.3 1 .6 1.8 1 2.4.7 1.1 1.6 1.6 2.7 1.6.8 0 1.4-.3 1.9-.8s.7-1.1.7-1.9c0-.3-.1-.7-.2-1 0-.2-.2-.5-.4-.7-.2-.3-.5-.6-.8-.8-.3-.2-.8-.5-1.5-.9-.7-.3-1.1-.5-1.5-.8-.3-.1-.5-.4-.8-.6C.8 5.5.5 4.7.5 3.8c0-.5.1-1.1.3-1.6.2-.4.5-.9.9-1.2.7-.6 1.5-1 2.5-1 .3 0 .6 0 .9.1.3.1.6.2 1.1.4.3.1.6.2.7.3.1 0 .2.1.3.1.2 0 .4-.2.5-.5h.2L8 4.3h-.4l-.4-1.6c-.2-.3-.3-.6-.5-.9C6.4 1.3 6 .9 5.6.7 5.2.4 4.8.3 4.3.3c-.7 0-1.3.3-1.7.8-.2.2-.3.4-.4.7-.1.2-.2.5-.2.8 0 1.1.7 2 2.1 2.6l1.4.7c1.1.5 1.8 1.1 2.3 1.7.5.7.8 1.5.8 2.4 0 .6-.1 1.2-.4 1.7-.3.8-.9 1.4-1.5 1.8-.7.4-1.5.6-2.4.6-.8 0-1.7-.2-2.4-.5-.2-.1-.5-.2-.7-.3H.9c-.3 0-.5.2-.6.5H0zM95.4 28.9c0 2 .5 3.6 1.6 5 .5.6 1 1 1.5 1.3.5.3 1.2.4 1.9.4s1.3-.1 1.9-.4 1.1-.7 1.5-1.3c1.1-1.4 1.6-3 1.6-5 0-1.1-.1-2.1-.4-3.1-.3-1-.7-1.8-1.2-2.5-.4-.6-.9-1-1.5-1.2-.5-.3-1.2-.4-1.9-.4s-1.3.1-1.9.4c-.5.3-1 .7-1.5 1.2-.5.7-.9 1.5-1.2 2.5-.2.9-.4 2-.4 3.1zm-2.5-.2c0-1.1.2-2.2.7-3.2s1.2-1.8 2.1-2.6c.7-.5 1.4-.9 2.3-1.2.8-.3 1.6-.4 2.4-.4 1 0 2.1.2 3 .7 1 .5 1.9 1.1 2.6 1.9 1.2 1.4 1.8 2.9 1.8 4.6 0 .9-.2 1.7-.5 2.5s-.8 1.6-1.4 2.2c-.7.8-1.6 1.5-2.6 1.9-1 .5-2.1.7-3.1.7-1.1 0-2.1-.2-3.1-.7-1-.4-1.8-1.1-2.5-1.9-.6-.6-1-1.4-1.3-2.2-.2-.6-.4-1.4-.4-2.3zm-16.5.2c0 2 .5 3.6 1.6 5 .5.6 1 1 1.5 1.3.5.3 1.2.4 1.9.4s1.3-.1 1.9-.4 1.1-.7 1.5-1.3c1.1-1.4 1.6-3 1.6-5 0-1.1-.1-2.1-.4-3.1-.3-1-.7-1.8-1.2-2.5-.4-.6-.9-1-1.5-1.2-.5-.3-1.2-.4-1.9-.4s-1.3.1-1.9.4c-.5.3-1 .7-1.5 1.2-.5.7-1 1.5-1.2 2.5-.3.9-.4 2-.4 3.1zm-2.5-.2c0-1.1.2-2.2.7-3.2.5-1 1.2-1.8 2.1-2.6.7-.5 1.4-.9 2.3-1.2.8-.3 1.6-.4 2.4-.4 1 0 2.1.2 3 .7 1 .5 1.9 1.1 2.6 1.9 1.2 1.4 1.8 2.9 1.8 4.6 0 .9-.2 1.7-.5 2.5s-.8 1.6-1.4 2.2c-.7.8-1.6 1.5-2.6 1.9-1 .5-2.1.7-3.1.7-1.1 0-2.1-.2-3.1-.7-1-.4-1.8-1.1-2.5-1.9-.6-.6-1-1.4-1.3-2.2-.2-.6-.4-1.4-.4-2.3zm-12.2-.3v4.2c0 .5 0 .9.1 1.2.1.3.2.6.4.8.3.5.9.7 1.8.7 1.1 0 2-.3 2.6-.9s1-1.4 1-2.4c0-.6-.1-1.1-.3-1.6s-.5-.9-.8-1.2c-.6-.5-1.6-.8-2.9-.8h-1.9zm0-6.4v6h.8c.4 0 .8 0 1.2-.1.4-.1.6-.1.9-.2l.6-.3c.3-.3.6-.6.8-1 .2-.4.3-.9.3-1.3 0-.5-.1-1-.3-1.5-.2-.5-.4-.8-.8-1.1-.3-.2-.6-.4-1-.5h-2.5zm-4.4 13.6v-.2c.4 0 .7-.1 1-.2.2-.1.5-.2.6-.4.2-.2.4-.5.4-.8.1-.3.1-.8.1-1.5V25c0-.7 0-1.2-.1-1.5-.1-.3-.2-.6-.4-.8-.2-.2-.4-.3-.6-.4-.2-.1-.6-.1-.9-.2v-.2H65.3c.8.1 1.4.2 1.9.5.4.3.8.6 1 1.1.2.4.4.9.4 1.5 0 .9-.3 1.6-.8 2.2-.2.2-.4.4-.7.5-.3.1-.6.3-1.1.5.7.1 1.2.2 1.5.4s.7.3 1 .5c.4.4.8.8 1 1.3.2.5.4 1.1.4 1.7 0 .6-.1 1.2-.4 1.7-.2.5-.6.9-1 1.2-.4.3-.9.5-1.4.6-.6.1-1.3.2-2.3.2l-7.5-.2zm-3.1-13.9v.2c-.4 0-.7.1-.9.2-.2.1-.5.2-.6.4-.3.3-.4.6-.5 1.1 0 .4-.1.8-.1 1.2v7.5c0 .6 0 1 .1 1.3.1.3.1.6.3.8.2.3.4.5.7.6.3.1.6.2 1.1.2v.2h-6.5v-.2c.4 0 .7-.1 1-.2.2-.1.5-.2.6-.4.2-.2.4-.5.4-.8.1-.3.1-.8.1-1.5v-7.5c0-.7 0-1.2-.1-1.5-.1-.3-.2-.6-.4-.8-.2-.2-.4-.3-.6-.4-.2-.1-.6-.1-.9-.2v-.2h6.3zm-17.7 6.8h.4c.8 0 1.4 0 1.8-.1.4-.1.7-.3 1-.6.7-.7 1.1-1.5 1.1-2.5 0-.5-.1-1-.3-1.5-.2-.5-.5-.9-.9-1.2-.3-.2-.6-.4-1-.5-.4-.1-1-.1-1.7-.1h-.4v6.5zm0 .3v3.6c0 .7 0 1.2.1 1.5.1.3.2.6.4.8.2.2.4.3.6.4.2.1.6.1 1 .2v.2h-6.5v-.2c.4 0 .7-.1 1-.2.2-.1.5-.2.6-.4.2-.2.4-.5.4-.8.1-.3.1-.8.1-1.5v-7.5c0-.7 0-1.2-.1-1.5-.1-.3-.2-.6-.4-.8-.2-.2-.4-.3-.6-.4-.2-.1-.6-.1-.9-.2v-.2h6.4c1.1 0 1.9.2 2.5.4.7.3 1.2.7 1.6 1.2.4.5.6 1.2.6 1.9 0 1.1-.4 1.9-1.2 2.5-.2.2-.5.3-.8.5-.4.1-.8.3-1.2.3.4.2.7.3.9.5.2.1.3.3.4.5.1.2.3.6.6 1.1.4.9.9 1.8 1.4 2.7.3.6.6 1 .8 1.2.2.2.3.4.5.4.2.1.4.1.7.2v.2H42c-.2-.4-.3-.6-.3-.7l-.7-1.6c-.4-1-.9-1.8-1.3-2.6-.4-.7-.8-1.2-1.2-1.5l-.6-.3c-.3-.1-.5-.1-.8-.1l-.6.2zm-13.1.8l-2.1-5.3-2 5.3h4.1zm6.4 6h-6.7v-.2c.6-.1 1-.2 1.3-.3.4-.3.6-.6.6-1.1 0-.3-.1-.7-.3-1.1l-.2-.4-1-2.4H19l-.5 1.4-.2.5c-.3.7-.5 1.3-.5 1.8s.2.9.6 1.2c.3.2.6.3 1 .3v.2h-4.6v-.2c.4 0 .7-.1.9-.3.3-.2.5-.4.8-.8.2-.3.4-.6.6-1.1.2-.4.5-1.1.8-2l3.7-9.6h.6l4.4 10.7c.3.8.6 1.4.8 1.7.2.3.4.6.6.8l.6.3c.2.1.5.1.9.2l.3.4zm-17.7-14l.1 4.6H12c-.1-.1-.1-.3-.2-.4l-.6-1.5c-.3-.6-.7-1.1-1.2-1.6-.3-.3-.7-.6-1.2-.8-.4-.2-.9-.3-1.4-.2-.8 0-1.4.2-2 .5-.5.3-1 .7-1.4 1.3-.4.6-.8 1.2-1 1.9-.4 1-.6 2.1-.6 3.4 0 1.1.1 2 .4 2.9s.7 1.6 1.2 2.2c.9 1.1 2.2 1.6 3.7 1.6.8 0 1.5-.1 2.1-.4.6-.3 1.1-.6 1.4-1.1.4-.6.7-1.3.9-2.3h.2c-.1 1.1-.4 1.9-.9 2.6-.4.6-1 1.1-1.8 1.4-.7.1-1.6.2-2.6.2-.9 0-1.8-.1-2.7-.4-1.4-.4-2.4-1.3-3.2-2.4C.4 31.9 0 30.5 0 28.9c0-1.2.2-2.4.7-3.4.4-1 1.1-1.9 1.9-2.5.6-.5 1.4-.9 2.2-1.2.8-.3 1.7-.4 2.6-.4.8 0 1.7.2 2.6.5l.8.3c.2.1.3.1.4.1.2 0 .3-.1.4-.2 0-.1.1-.2.2-.3l.3-.2zM254.2 23.5v8.9c0 .7 0 1.2.1 1.5.1.6.5 1 1.1 1.3.2.1.6.1.9.2v.2h-4.7v-.2c.4 0 .7-.1.9-.2.6-.2 1-.7 1.1-1.3.1-.3.1-.8.1-1.5v-7.5c0-.7 0-1.2-.1-1.5-.1-.3-.2-.6-.4-.8-.2-.2-.4-.3-.6-.4-.2-.1-.6-.1-1-.2v-.2h3.9l8.3 10.6V25c0-.7 0-1.2-.1-1.5-.1-.6-.5-1-1.1-1.3-.2-.1-.6-.1-.9-.2v-.2h4.7v.2c-.7 0-1.2.2-1.6.6-.2.2-.4.5-.4.8-.1.3-.1.8-.1 1.5v10.7h-.5l-9.6-12.1zm-5.7-1.8v.2c-.4 0-.7.1-.9.2-.2.1-.5.2-.6.4-.3.3-.4.6-.5 1.1 0 .4-.1.8-.1 1.2v7.5c0 .6 0 1 .1 1.3.1.3.1.6.3.8.2.3.4.5.7.6.3.1.6.2 1.1.2v.2H242v-.2c.4 0 .7-.1 1-.2.2-.1.5-.2.6-.4.2-.2.4-.5.4-.8s.1-.8.1-1.5v-7.5c0-.7 0-1.2-.1-1.5-.1-.3-.2-.6-.4-.8-.2-.2-.4-.3-.6-.4-.2-.1-.6-.1-.9-.2v-.2h6.4zm-17.4.3h-1.4c-1 .1-1.8.2-2.3.4-.5.2-.9.6-1.3 1.1-.3.5-.5 1.1-.7 1.9h-.2l.2-3.8h13.8l.2 3.8h-.2c-.2-.9-.5-1.7-.9-2.1-.4-.5-1-.8-1.7-1-.6-.2-1.7-.3-3.2-.3v10.4c0 .7 0 1.2.1 1.5.1.6.5 1.1 1.1 1.3.2.1.6.1.9.2v.2H229v-.2c.4 0 .7-.1 1-.2.6-.2 1-.7 1.1-1.3.1-.3.1-.8.1-1.5V22zm-21.6 6.9c0 2 .5 3.6 1.6 5 .5.6 1 1 1.5 1.3.5.3 1.2.4 1.9.4s1.3-.1 1.9-.4c.5-.3 1.1-.7 1.5-1.3 1.1-1.4 1.6-3 1.6-5 0-1.1-.1-2.1-.4-3.1-.3-1-.7-1.8-1.2-2.5-.4-.6-.9-1-1.5-1.2-.5-.3-1.2-.4-1.9-.4s-1.3.1-1.9.4c-.5.3-1 .7-1.5 1.2-.5.7-.9 1.5-1.2 2.5-.2.9-.4 2-.4 3.1zm-2.4-.2c0-1.1.2-2.2.7-3.2s1.2-1.8 2.1-2.6c.7-.5 1.4-.9 2.3-1.2.8-.3 1.6-.4 2.4-.4 1 0 2.1.2 3 .7 1 .5 1.9 1.1 2.6 1.9 1.2 1.4 1.8 2.9 1.8 4.6 0 .9-.2 1.7-.5 2.5s-.8 1.6-1.4 2.2c-.7.8-1.6 1.5-2.6 1.9-1 .5-2.1.7-3.1.7-1.1 0-2.1-.2-3.1-.7-1-.4-1.8-1.1-2.5-1.9-.6-.6-1-1.4-1.3-2.2-.3-.6-.4-1.4-.4-2.3zm-4-7.1l.1 4.6h-.2c-.1-.1-.1-.3-.2-.4l-.6-1.5c-.3-.6-.7-1.1-1.2-1.6-.3-.3-.7-.6-1.2-.8-.4-.2-.9-.3-1.4-.2-.8 0-1.4.2-2 .5-.5.3-1 .7-1.4 1.3-.4.6-.8 1.2-1.1 1.9-.4 1-.6 2.1-.6 3.4 0 1.1.1 2 .4 2.9s.7 1.6 1.2 2.2c.9 1.1 2.2 1.6 3.7 1.6.8 0 1.5-.1 2.1-.4.6-.3 1.1-.6 1.4-1.1.4-.6.7-1.3.9-2.3h.2c-.1 1.1-.4 1.9-.9 2.6-.4.6-1 1.1-1.8 1.4-.8.3-1.6.5-2.7.5-.9 0-1.8-.1-2.7-.4-1.4-.4-2.4-1.3-3.2-2.4-.8-1.2-1.1-2.6-1.1-4.2 0-1.2.2-2.4.7-3.4.4-1 1.1-1.9 1.9-2.5.6-.5 1.4-.9 2.2-1.2.8-.3 1.7-.4 2.6-.4.8 0 1.7.2 2.6.5l.8.3c.2.1.3.1.4.1.2 0 .3-.1.4-.2 0-.1.1-.2.2-.3l.5-.5zm-27.4 14v-.2c.7 0 1.2-.2 1.6-.6.2-.2.4-.5.4-.8.1-.3.1-.8.1-1.5V25c0-.7 0-1.3-.1-1.6-.1-.3-.2-.6-.5-.8-.2-.2-.4-.3-.6-.4-.2-.1-.5-.1-.9-.1v-.2h6.5v.2c-.4 0-.7.1-.9.2-.2.1-.4.2-.6.4-.2.2-.4.5-.5.8-.1.3-.1.9-.1 1.6V31c0 .9 0 1.6.1 2 0 .4.1.8.3 1.1.2.5.6.8 1.1 1.1.5.2 1.1.3 1.9.3.8 0 1.5-.1 2-.3.5-.2 1-.5 1.4-1 .2-.3.4-.7.6-1 .2-.4.3-.9.4-1.5h.2l-.1 4.2h-12.3zm-3.1-13.9v.2c-.4 0-.7.1-.9.2-.2.1-.5.2-.6.4-.3.3-.4.6-.5 1.1 0 .4-.1.8-.1 1.2v7.5c0 .6 0 1 .1 1.3.1.3.1.6.3.8.2.3.4.5.7.6.3.1.6.2 1.1.2v.2h-6.5v-.2c.4 0 .7-.1 1-.2.2-.1.5-.2.6-.4.2-.2.4-.5.4-.8s.1-.8.1-1.5v-7.5c0-.7 0-1.2-.1-1.5-.1-.3-.2-.6-.4-.8-.2-.2-.4-.3-.6-.4-.2-.1-.6-.1-.9-.2v-.2h6.3zm-21.2 6.4h7.2v-3.3c0-.7 0-1.2-.1-1.5-.1-.6-.5-1-1.1-1.3-.2-.1-.6-.1-1-.2v-.2h6.5v.2c-.4 0-.7.1-.9.2-.6.2-1 .7-1.1 1.3-.1.3-.1.9-.1 1.5v7.5c0 .7 0 1.2.1 1.5.1.3.2.6.4.8.2.2.4.3.6.4.2.1.6.1.9.2v.2h-6.5v-.2c.4 0 .7-.1 1-.2.2-.1.5-.2.6-.4.2-.2.4-.5.4-.8.1-.3.1-.8.1-1.5v-3.8h-7.2v3.8c0 .7 0 1.2.1 1.5.1.3.2.6.4.8.2.2.4.3.6.4.2.1.6.1 1 .2v.2H147v-.2c.4 0 .7-.1 1-.2.2-.1.5-.2.6-.4.2-.2.4-.5.4-.8.1-.3.1-.8.1-1.5v-7.5c0-.7 0-1.2-.1-1.5-.1-.3-.2-.6-.4-.8-.2-.2-.4-.3-.6-.4-.2-.1-.6-.1-.9-.2v-.2h6.5v.2c-.4 0-.7.1-.9.2-.6.2-1 .7-1.1 1.3-.1.3-.1.9-.1 1.5l-.1 3.2zm-7.9-6.5l.1 4.6h-.2c-.1-.1-.1-.3-.2-.4l-.6-1.5c-.3-.6-.7-1.1-1.2-1.6-.3-.3-.7-.6-1.2-.8-.4-.2-.9-.3-1.4-.2-.8 0-1.4.2-2 .5-.5.3-1 .7-1.4 1.3-.4.6-.8 1.2-1.1 1.9-.4 1-.6 2.1-.6 3.4 0 1.1.1 2 .4 2.9s.7 1.6 1.2 2.2c.9 1.1 2.2 1.6 3.7 1.6.8 0 1.5-.1 2.1-.4.6-.3 1.1-.6 1.4-1.1.4-.6.7-1.3.9-2.3h.2c-.1 1.1-.4 1.9-.9 2.6-.4.6-1 1.1-1.8 1.4-.8.3-1.6.5-2.7.5-.9 0-1.8-.1-2.7-.4-1.4-.4-2.4-1.3-3.2-2.4-.8-1.2-1.2-2.6-1.2-4.2 0-1.2.2-2.4.7-3.4.4-1 1.1-1.9 1.9-2.5.6-.5 1.4-.9 2.2-1.2.8-.3 1.7-.4 2.6-.4.8 0 1.7.2 2.6.5l.8.3c.2.1.3.1.4.1.2 0 .3-.1.4-.2 0-.1.1-.2.2-.3l.6-.5zM119.2 39.1V18.4h1.3V39l-1.3.1z"/></svg>